# xmcd
#
# Track frame offsets:
#	150
#	12510
#	24074
#	38937
#	52084
#	62503
#	75037
#	91989
#	103549
#	117050
#	132105
#	153629
#	167115
#	194835
#
# Disc length: 2820 seconds
#
# Revision: 0
# Processed by: cddbd v1.5.2PL0 Copyright (c) Steve Scherf et al.
# Submitted via: FairStars CD Ripper 1.60
#
DISCID=aa0b020e
DTITLE=The Everly Brothers - Country
DYEAR=2007
DGENRE=Country
TTITLE0=Bye Bye Love
TTITLE1=Wake Up Little Susie
TTITLE2=All I Have to Do Is Dream
TTITLE3=Claudette
TTITLE4=Bird Dog
TTITLE5=(Till) I Kissed You
TTITLE6=Let It Be Me
TTITLE7=Cathy's Clown
TTITLE8=When Will I Be Loved
TTITLE9=So Sad (To Watch Good Love Go Bad)
TTITLE10=Lucille
TTITLE11=Walk Right Back
TTITLE12=Medley: Devoted to You/Ebony Eyes/Love Hurts
TTITLE13=Crying in the Rain
EXTD=
EXTT0=
EXTT1=
EXTT2=
EXTT3=
EXTT4=
EXTT5=
EXTT6=
EXTT7=
EXTT8=
EXTT9=
EXTT10=
EXTT11=
EXTT12=
EXTT13=
PLAYORDER=
